<svg xmlns="http://www.w3.org/2000/svg" viewBox="0 0 251.07 236.58"><defs><style>.cls-1{fill:#3e104a;}.cls-2{fill:#511f5b;}.cls-3{fill:#1cf4d4;}.cls-4{fill:#23d6bf;}.cls-5{fill:#4d9a9d;}.cls-6{fill:#00d5bd;}.cls-7{fill:#ff8786;}.cls-8{fill:#f9efeb;}.cls-9{fill:#370942;}.cls-10{fill:#48989c;}.cls-11{fill:#e9e4e6;}</style></defs><title>Ativo 8SVG</title><g id="Camada_2" data-name="Camada 2"><g id="Camada_6" data-name="Camada 6"><path class="cls-1" d="M244.09,169c-4.26,5.26-11.91,6-15.8,5.68-4.19.61-4.72,4.3-4.24,15.23.35,7.94.74,17-4.93,22.14-3.55,3.26-8.7,4.38-15.74,3.44l-.18,0c-18.2-3.31-24.33-4.42-79.31,7.79-25.42,5.65-38.81,8.2-46.2,8.79-1.17.1-2.22.15-3.17.15-5.42,0-7.57-1.52-9.67-4.4-.16-.22-.33-.46-.51-.69-.41-.52-.84-1.06-1.26-1.62-3.73-4.83-5.38-6.19-6.56-5.4-3.29,2.19-7.64,2-11.66-.55s-8.24-8-7.43-13.69a4.05,4.05,0,0,1,.37-1.18c3.11-6.31.73-8.59-7.26-14.85-7.59-5.94-18-14.08-20.77-30.94a9.88,9.88,0,0,1,2-9.24,13.44,13.44,0,0,1,11.74-4.09l.17,0a1.5,1.5,0,0,0,1.35-.48c2.55-2.14,4.53-9,4.53-13.48-.3-2.24-6.74-9.66-11-14.56-8.84-10.19-14.21-16.76-14.21-22,0-4.22,1.8-6.54,3.31-7.74,4.4-3.49,11.25-1.9,17.29-.49,1.36.32,3.18.74,4.54.95-.41-13.25-1.57-56.29.85-61.7a3.88,3.88,0,0,1,3.73-2.32c7.08.28,22-2.24,39.37-5.17,14.9-2.53,31.78-5.38,48.69-7.36,34.24-12.46,74.76-9.68,86.29,19.8a3.38,3.38,0,0,1,.18.62,77.74,77.74,0,0,1,1.08,13.45c.16,6.14.31,12.49,2.08,16,3.43,6.93,8.34,12.14,13.08,17.18,6.09,6.47,11.84,12.58,13.35,21.28.72,4.12,0,7.36-2.2,9.63-3.92,4.1-10.57,3.24-16.45,2.47a48,48,0,0,0-5-.47c-.18.93-.33,2.42-.46,3.68-.57,5.34-1.4,13.27-6.1,21.72,3.52,1.57,13.37,2.72,17.87,3.24a23.83,23.83,0,0,1,19.78,15.61C248,162.23,246.09,166.57,244.09,169Z"/><path class="cls-2" d="M74.52,236.58c-6.25,0-9.94-1.74-13.18-6.19l-.06-.08c-.12-.16-.24-.33-.38-.5l-1.29-1.67c-1.29-1.67-2.15-2.68-2.72-3.29-4.39,1.94-9.6,1.39-14.35-1.6-5.47-3.44-10.51-10.35-9.41-18a7.78,7.78,0,0,1,.78-2.5c1.56-3.16,1.69-3.42-6-9.49s-19.22-15-22.34-33.45a14.11,14.11,0,0,1,3-13,17.74,17.74,0,0,1,14.26-5.68,22.17,22.17,0,0,0,2.46-8.82C24,129.93,18,123.06,15.37,120l-.09-.1C5.81,109,0,102,0,95.13A13.79,13.79,0,0,1,5,84c5.76-4.58,13.55-3,20-1.55-1-34.29-.51-53.82,1.39-58.06a8.17,8.17,0,0,1,7.89-4.89c6.65.25,22.1-2.35,38.46-5.12C87.49,11.87,104.21,9,121.12,7c36-12.95,78.88-9.4,91.35,22.48a9,9,0,0,1,.39,1.31A80.55,80.55,0,0,1,214,45.06c.13,5.43.29,11.54,1.62,14.23,3.14,6.33,7.8,11.29,12.31,16.09,6.3,6.69,12.78,13.56,14.52,23.56,1.21,6.91-1.16,11.09-3.35,13.38-5.44,5.69-13.6,4.63-20.15,3.77l-.61-.07a61.11,61.11,0,0,1-4.17,17.88c4.22.81,9.85,1.46,12.18,1.73a28.19,28.19,0,0,1,23.39,18.5c3.13,9-.1,14.93-2.3,17.65-4.79,5.92-12.88,7.64-18.73,7.33-.73,1.77-.44,8.4-.34,10.65.37,8.45.83,19-6.34,25.54-4.57,4.17-10.86,5.66-19.25,4.54l-.13,0-.26,0c-17.55-3.2-23.46-4.27-77.59,7.76-25.62,5.7-39.18,8.27-46.79,8.88C76.71,236.53,75.55,236.58,74.52,236.58Zm-6.13-11.27c1.24,1.69,2.09,2.57,6.13,2.57.79,0,1.72,0,2.82-.13,7.19-.57,20.4-3.1,45.61-8.7,55.76-12.39,62.17-11.26,81-7.84h0c5.73.77,9.73,0,12.28-2.33,4.17-3.82,3.83-11.75,3.52-18.74-.42-9.49-.81-18.45,7.95-19.72a4.29,4.29,0,0,1,1,0c2.82.25,9-.28,12-4.08h0c1.9-2.35,2.18-5.48.84-9.33a19.45,19.45,0,0,0-16.17-12.71c-7.79-.91-15.5-2-19.14-3.58a4.36,4.36,0,0,1-2-6.09c4.26-7.67,5-14.82,5.57-20,.17-1.61.32-3,.53-4.08a4.34,4.34,0,0,1,4.24-3.5,51.87,51.87,0,0,1,5.55.5c4.85.63,10.35,1.35,12.75-1.16.44-.46,1.77-1.84,1.06-5.88-1.29-7.43-6.37-12.81-12.24-19.05-5-5.31-10.1-10.74-13.81-18.23-2.18-4.41-2.36-11.23-2.53-17.82a75.39,75.39,0,0,0-1-12.69c-10.52-26.79-48.57-29-80.74-17.25a4.52,4.52,0,0,1-1,.23c-16.86,2-33.65,4.82-48.46,7.32-17.3,2.93-32.27,5.46-39.94,5.25-1,3.72-1.53,23.32-.39,59.53a4.34,4.34,0,0,1-5,4.43c-1.47-.24-3.28-.65-4.86-1C18.88,90,13.13,88.6,10.37,90.8A5.21,5.21,0,0,0,8.7,95.13c0,4,7,12,13.15,19.11l.09.11c9,10.37,11.56,14,11.93,16.72a3.77,3.77,0,0,1,0,.58c0,4.73-1.94,13.33-6.09,16.81A5.81,5.81,0,0,1,23,149.9H22.9a9.05,9.05,0,0,0-7.83,2.62A5.5,5.5,0,0,0,14,157.8c0,.13.06.27.08.4,2.52,15.21,11.74,22.43,19.16,28.23s13.28,10.4,8.51,20.13c-.43,3.59,2.46,7.46,5.44,9.33,2.57,1.62,5.1,1.84,6.94.61,5-3.31,9.26,2.28,12.41,6.36.43.57.83,1.08,1.22,1.57C68,224.75,68.2,225,68.39,225.31Zm-9.45-1.58h0ZM41.7,206.62Zm0-.19v0ZM24.33,141.31h0Zm180-108.62Zm0-.07ZM33.9,28.17Z"/><path class="cls-1" d="M242.35,167.3c-4.25,5.26-11.91,6-15.8,5.68-4.19.61-4.71,4.3-4.24,15.23.35,7.94.74,16.95-4.93,22.14-3.55,3.26-8.7,4.38-15.74,3.44l-.18,0c-18.2-3.31-24.33-4.42-79.31,7.79-25.41,5.66-38.81,8.2-46.2,8.79-1.17.1-2.22.15-3.17.15-5.42,0-7.57-1.52-9.67-4.4-.16-.22-.33-.46-.51-.69-.41-.52-.84-1.06-1.26-1.62-3.72-4.83-5.38-6.19-6.56-5.4-3.29,2.19-7.64,2-11.66-.55s-8.24-8-7.43-13.69a4.05,4.05,0,0,1,.37-1.18c3.11-6.31.73-8.59-7.26-14.85C21.21,182.17,10.83,174,8,157.17a9.88,9.88,0,0,1,2-9.24,13.45,13.45,0,0,1,11.74-4.09l.17,0a1.5,1.5,0,0,0,1.35-.48c2.55-2.14,4.54-9,4.54-13.48-.31-2.24-6.75-9.66-11-14.56C8,105.16,2.61,98.59,2.61,93.39c0-4.22,1.8-6.54,3.31-7.74,4.4-3.49,11.25-1.9,17.29-.49,1.36.32,3.18.74,4.55,1-.42-13.26-1.58-56.3.84-61.71a3.88,3.88,0,0,1,3.73-2.32c7.08.28,22-2.24,39.37-5.17,14.91-2.52,31.78-5.38,48.69-7.36,34.24-12.46,74.76-9.68,86.29,19.8a3.38,3.38,0,0,1,.18.62,76.76,76.76,0,0,1,1.08,13.45c.16,6.14.31,12.49,2.08,16,3.43,6.93,8.34,12.14,13.08,17.18,6.09,6.47,11.84,12.58,13.35,21.28.72,4.12,0,7.36-2.2,9.64-3.92,4.09-10.57,3.23-16.45,2.46a45.3,45.3,0,0,0-5-.46c-.19.92-.34,2.41-.47,3.67-.57,5.34-1.4,13.27-6.1,21.72,3.52,1.57,13.37,2.72,17.87,3.24a23.82,23.82,0,0,1,19.78,15.61C246.24,160.5,244.35,164.83,242.35,167.3Z"/><path class="cls-2" d="M72.78,233.1c-6.49,0-9.32-2.09-11.78-5.47-.16-.24-.31-.44-.46-.63q-.61-.76-1.29-1.65A29.65,29.65,0,0,0,55.48,221c-4,2.28-9.13,1.94-13.75-1-4.84-3-9.6-9.44-8.62-16.27a5.93,5.93,0,0,1,.62-2c2.05-4.17,1.82-5.09-6.54-11.63-7.46-5.84-18.72-14.65-21.71-32.45a12.4,12.4,0,0,1,2.58-11.49,16,16,0,0,1,13.74-5c1.5-1.55,3.32-6.85,3.41-11-.8-2.16-7.41-9.77-10.26-13.06l-.1-.11C5.64,106.44,0,99.62,0,93.39c0-5.26,2.34-8.22,4.3-9.78,5.39-4.28,13.22-2.46,19.5-1l1.25.29C24.3,57.8,24,28.39,26.22,23.35a6.45,6.45,0,0,1,6.22-3.86c6.84.26,22.38-2.36,38.83-5.14C86.07,11.84,102.85,9,119.78,7c35.3-12.75,77.24-9.5,89.33,21.4a7,7,0,0,1,.31,1,80.25,80.25,0,0,1,1.13,13.92c.14,5.61.3,11.91,1.81,15,3.25,6.56,8,11.62,12.59,16.51C231.36,81.63,237.37,88,239,97.49c.87,5-.1,9-2.88,11.89-4.84,5.05-12.51,4.05-18.68,3.25-.68-.09-1.55-.2-2.37-.29-.05.41-.09.82-.13,1.18-.52,4.93-1.28,12.08-5,19.89,4.34,1,11.4,1.85,14.44,2.21A26.45,26.45,0,0,1,246.39,153c2.71,7.81.4,13-2,16-4.5,5.55-12.26,7.06-17.71,6.66-1.42.32-2.22,1.76-1.75,12.48.35,8.1.8,18.17-5.77,24.19-4.17,3.8-10,5.14-17.85,4.09h-.12l-.18,0c-17.81-3.24-23.81-4.33-78.28,7.77-25.54,5.68-39,8.24-46.56,8.84C74.87,233.05,73.77,233.1,72.78,233.1ZM55.43,215.53c2.84,0,5.54,3.5,8,6.66.43.57.84,1.09,1.24,1.58.23.3.43.57.61.84,1.48,2,2.74,3.27,7.53,3.27.84,0,1.81,0,3-.14,7.27-.58,20.55-3.11,45.85-8.73,55.45-12.32,61.75-11.2,80.29-7.82h0c6.29.84,10.75-.06,13.7-2.76,4.78-4.37,4.41-12.73,4.09-20.11-.4-9-.74-16.87,6.46-17.92a3.11,3.11,0,0,1,.61,0c3.37.3,10-.35,13.54-4.72h0c2.3-2.84,2.68-6.54,1.14-11a21.23,21.23,0,0,0-17.62-13.87c-7.28-.85-15.19-1.92-18.63-3.44a2.59,2.59,0,0,1-1.41-1.56,2.55,2.55,0,0,1,.19-2.09c4.43-8,5.21-15.34,5.78-20.71.16-1.58.31-3,.51-3.93a2.59,2.59,0,0,1,2.54-2.1,47.39,47.39,0,0,1,5.32.49c5.26.68,11.22,1.46,14.23-1.69,1.6-1.67,2.09-4.08,1.51-7.38C232.5,90.45,227,84.62,221.2,78.45c-4.9-5.21-9.92-10.56-13.52-17.81-2-4.07-2.18-10.69-2.35-17.09a75.81,75.81,0,0,0-1-13,1.29,1.29,0,0,0-.06-.21c-10.9-27.87-50-30.3-83-18.3a2.41,2.41,0,0,1-.59.14C103.78,14.14,87,17,72.14,19.49c-17.45,3-32.53,5.51-39.91,5.21a1.28,1.28,0,0,0-1.25.77C29.57,28.63,29.32,53,30.36,86a2.61,2.61,0,0,1-3,2.66c-1.42-.22-3.19-.63-4.74-1C17.15,86.42,11,85,7.54,87.7,6,88.92,5.22,90.84,5.22,93.39c0,4.28,5.37,10.8,13.58,20.25l.09.11c7.69,8.86,11.17,13.25,11.52,15.81a2.11,2.11,0,0,1,0,.35c0,4.46-1.95,12.53-5.47,15.48a4.06,4.06,0,0,1-3.45,1.05l-.16,0A10.86,10.86,0,0,0,12,149.63a7.25,7.25,0,0,0-1.45,6.88c0,.08,0,.16,0,.24,2.63,15.87,12.55,23.64,19.8,29.31,7.6,5.95,12.19,9.55,8,18.06a1,1,0,0,0-.12.35c-.63,4.37,2.66,8.91,6.23,11.15,3.12,2,6.42,2.19,8.82.59A3.75,3.75,0,0,1,55.43,215.53Zm.8,5Z"/><path class="cls-3" d="M201.73,107.53q0,11.1-2.17,17.67h0a23.08,23.08,0,0,1-.94,2.4q-3.1,6.78-12,12.42a46.74,46.74,0,0,1-6.3,3.36,57.45,57.45,0,0,1-14.44,4.12c-8.66,1.34-16.22,1.26-22.17-1.48-9-4.18-16.29-9.35-20.59-13.73a26.7,26.7,0,0,1-2.47-2.86l-1.42-4.53c1.61-2.63,9.61-3,9.61-10.7v-8.15l6.49-1,1.76-.27-1.71-3.18L133,97.31,135.46,96l8.88-4.78,14.45,10.2.07,0v15.09c0,.5,0,1,0,1.45a30.41,30.41,0,0,0,.45,5.11,6.06,6.06,0,0,0,.8,2.24c.85,1.2,2.34,1.63,4.5,1.29a6.35,6.35,0,0,0,4.8-3.27,16,16,0,0,0,1.57-7.78q0-11-3-13.9t-15.14-9q-12.06-6.12-16-9.12a21.85,21.85,0,0,1-6.49-9q-2.58-6-2.58-15.89,0-13.21,3.13-20.34c.17-.39.34-.77.52-1.13a30.7,30.7,0,0,1,11.8-12.15,6.53,6.53,0,0,0,2.31-2.59c2.56-4.79,2.07-12.93,8.34-13.91a40.56,40.56,0,0,1,16.61.69,27.44,27.44,0,0,1,5.13,1.92c6.95,3.48,14.78,7.83,20.51,16.31,2.4,3.53,2.89,10.67,2.89,20.56V53h0l-30,4.65v-.93l-.3.58L158.1,49.53a1.62,1.62,0,0,0,0,.22q0,6.22,1.68,9.12c.52.94,1.25,1.11,2.43,1.28a18.76,18.76,0,0,1,5.62,1.51c1.24.7,2.47,1.4,3.66,2.09,12.1,7.06,21.24,13.68,24.64,18.14Q201.73,89.24,201.73,107.53Z"/><path class="cls-3" d="M127.31,150.86h-.07l-32.43,5-.9.54-13.12-10v11.66l-32,5-.1.37L33.91,153,35.65,38.18,58.63,27l7.45-3.61L80.66,33.68l.13.1V82l3.35-11.74.27-1L95.2,31.43l1.08-.17-4.11-4.39,18.26-10.43.12.09L125.11,26.8l.43-.07L107,85.78l.08.27v0l12.12,38.83a2,2,0,0,0-.07,2,11.63,11.63,0,0,0,1.49,2.57Z"/><path class="cls-3" d="M119.2,124.91a2,2,0,0,0-.07,2,11.63,11.63,0,0,0,1.49,2.57ZM80.66,33.68l.13.1v-.12Z"/><path class="cls-4" d="M119.2,124.91a2,2,0,0,0-.07,2,11.63,11.63,0,0,0,1.49,2.57Zm39.59-23.49.07,0v0Z"/><polygon class="cls-3" points="80.87 33.83 80.79 34.14 80.79 33.78 80.87 33.83"/><polygon class="cls-4" points="159.13 101.65 158.85 101.75 158.85 101.46 159.13 101.65"/><polygon class="cls-5" points="127.31 150.86 127.24 150.87 112.17 139.91 84.14 70.25 84.41 69.3 106.95 86 107.08 86.08 127.31 150.86"/><polygon class="cls-6" points="106.99 85.78 107.07 86.05 106.95 86 92.17 75.06 110.55 16.53 125.11 26.8 125.54 26.73 106.99 85.78"/><polygon class="cls-5" points="80.79 117.2 80.79 157.8 66.08 147.74 60 84.26 76.52 84.26 80.79 117.2"/><path class="cls-5" d="M80.79,33.78V47L72.17,82.52H58.26S58.68,49,58.63,27l7.45-3.61L80.66,33.68Z"/><path class="cls-5" d="M158.87,118a6,6,0,0,1-1.48,2.78c-2.61,1.74-20.87,0-21.74-.87-.41-.4-.44-7.46-.35-14.86,0-1.14,0-2.3,0-3.45,0-1.95.07-3.86.11-5.6l8.88-4.78,14.45,10.2.07,0v15.09C158.86,117.05,158.86,117.54,158.87,118Z"/><path class="cls-5" d="M201.73,107.53q0,11.1-2.17,17.67L180.86,113l1.74-7.83L167,65.13l4.53-1.38c12.1,7.06,21.24,13.68,24.64,18.14Q201.73,89.24,201.73,107.53Z"/><path class="cls-6" d="M180.29,143.39a57.45,57.45,0,0,1-14.44,4.12c-8.66,1.34-16.22,1.26-22.17-1.48-9-4.18-16.29-9.35-20.59-13.73l1.25-6.3,29.88-2.73Z"/><path class="cls-5" d="M199.05,48.09V53h0L184.34,42.53l-3.48-3.48-4.34-3.48-6-26.27a27.44,27.44,0,0,1,5.13,1.92c6.95,3.48,14.78,7.83,20.51,16.31C198.56,31.06,199.05,38.2,199.05,48.09Z"/><path class="cls-5" d="M162.6,66.87s-21.74-2.61-23.47-6.08c-1.23-2.47-6.63-14.51-8.19-22.4-.65-3.26-.65-5.81.56-6.71,3.25-2.41,10.92-7.21,14.07-9.16l1.38-.86h13c0,.38.51,9.14,1.07,18.85a6.17,6.17,0,0,0-1.47,1.78,15.21,15.21,0,0,0-1.5,7.46q0,6.22,1.68,9.12c.52.94,1.25,1.11,2.43,1.28C162.45,64.19,162.6,66.87,162.6,66.87Z"/><polygon class="cls-3" points="154.78 46.87 168.69 58.18 197.96 53.18 165.21 45.13 154.78 46.87"/><path class="cls-3" d="M24.68,153c1.91,4.39,3.53,8.75,5.54,12A12.63,12.63,0,0,0,37.8,171a35.88,35.88,0,0,0,11.77,1,106.08,106.08,0,0,0,13.12-1.58c17.75-3.14,35.5-8.65,53.48-13.7,9-2.57,18-5.14,27.06-7.59,4.55-1.23,9.13-2.42,13.76-3.54s9.29-2.19,14-3.1c9.52-1.81,19.38-3.27,30-2.84a65.51,65.51,0,0,1,16.2,2.67,54.19,54.19,0,0,1,15.4,7.64h0a10.24,10.24,0,1,1-11.93,16.64c-.11-.07-.25-.18-.35-.26a34.11,34.11,0,0,0-9.32-5.18,45.63,45.63,0,0,0-11.25-2.35c-8.05-.73-16.85.06-25.7,1.35-4.43.64-8.9,1.45-13.38,2.32s-9,1.83-13.49,2.83c-9,2-18.06,4.14-27.14,6.29l-13.62,3.24c-4.54,1.07-9.09,2.14-13.72,3.18-9.23,2-18.54,3.91-28.13,5.16a117.52,117.52,0,0,1-14.71,1.1c-1.28,0-2.53,0-3.83-.08l-1.94-.11-2-.22A36.79,36.79,0,0,1,34,182.07a24.61,24.61,0,0,1-7.87-4.57,25.67,25.67,0,0,1-5.48-6.95,54.71,54.71,0,0,1-3.2-7.06L15,156.92v0a5.22,5.22,0,0,1,9.67-3.9Z"/><path class="cls-7" d="M207.41,184l2.45,2.68a.63.63,0,0,1,0,.9l-2.26,2.07a.63.63,0,0,1-.9,0l-2.45-2.67a.65.65,0,0,0-.91,0l-2.67,2.45a.63.63,0,0,1-.9,0L197.65,187a.63.63,0,0,1,0-.9l2.67-2.45a.63.63,0,0,0,0-.9L198,180.11a.64.64,0,0,1,0-.9l2.26-2.07a.64.64,0,0,1,.91,0l2.44,2.67a.65.65,0,0,0,.91,0l2.67-2.45a.65.65,0,0,1,.91,0l2.07,2.26a.63.63,0,0,1,0,.9l-2.67,2.45A.63.63,0,0,0,207.41,184Z"/><path class="cls-7" d="M54,204.79l2.16,2.35a.57.57,0,0,1,0,.8l-2,1.82a.56.56,0,0,1-.79,0l-2.16-2.35a.56.56,0,0,0-.79,0L48,209.5a.56.56,0,0,1-.79,0l-1.83-2a.56.56,0,0,1,0-.79l2.35-2.16a.56.56,0,0,0,0-.79l-2.16-2.36a.57.57,0,0,1,0-.79l2-1.82a.56.56,0,0,1,.8,0l2.15,2.35a.57.57,0,0,0,.8,0L53.75,199a.57.57,0,0,1,.8,0l1.82,2a.57.57,0,0,1,0,.8L54,204A.58.58,0,0,0,54,204.79Z"/><path class="cls-8" d="M66.58,190.05l5.25-.5c2.17-.21,3.9-.31,5.13-.31a11.5,11.5,0,0,1,1.44.07,5,5,0,0,1,3.24,1.78,8.93,8.93,0,0,1,1.63,5c.2,2.13.06,3.58-.43,4.42a3.18,3.18,0,0,1-1.4,1.21,3.53,3.53,0,0,1,1.3.77,4.46,4.46,0,0,1,1.11,1.63,21.11,21.11,0,0,1,.56,3.92l.69,7.3-7.22.68L77,206.93c-.17-1.78-.39-2.18-.46-2.26s-.31-.18-.8-.18h0l1.1,11.61-7.7.73Zm8.67,9.4a1.71,1.71,0,0,0,.79-.29s.21-.25.08-1.62L76,196.12c-.08-.93-.31-1.16-.38-1.21a1.39,1.39,0,0,0-.8-.16Z"/><path class="cls-9" d="M77,189.74a12.93,12.93,0,0,1,1.38.06,4.51,4.51,0,0,1,2.92,1.61,8.6,8.6,0,0,1,1.51,4.71c.19,2,.07,3.38-.36,4.11a4,4,0,0,1-2.83,1.53,5.1,5.1,0,0,1,2.8,1.06,4,4,0,0,1,1,1.44,25.4,25.4,0,0,1,.53,3.8l.65,6.8-6.23.6-.82-8.57a6,6,0,0,0-.57-2.54,1.49,1.49,0,0,0-1.19-.36l-.57,0,1.11,11.63-6.71.64L67.13,190.5l4.74-.45c2.18-.21,3.87-.31,5.09-.31M74.8,200a3.06,3.06,0,0,0,1.56-.46c.28-.24.37-.92.26-2.06l-.14-1.42a2.16,2.16,0,0,0-.59-1.57,1.94,1.94,0,0,0-1.11-.25l-.53,0L74.8,200M77,188.74h0c-1.24,0-3,.1-5.18.31l-4.75.46-1,.09.09,1,2.46,25.78.09,1,1-.09,6.7-.64,1-.1-.1-1-.94-9.89c.06.3.12.72.18,1.31l.81,8.57.1,1,1-.1,6.23-.59,1-.09-.1-1L84.9,208a20.1,20.1,0,0,0-.58-4,4.8,4.8,0,0,0-1.23-1.82,3.23,3.23,0,0,0-.61-.48,3.2,3.2,0,0,0,.79-.9c.56-1,.71-2.44.5-4.72A9.35,9.35,0,0,0,82,190.76a5.45,5.45,0,0,0-3.55-1.95,12.57,12.57,0,0,0-1.5-.07Zm-1.3,9.75-.28-3a4.93,4.93,0,0,1,.11.65l.13,1.41a6.54,6.54,0,0,1,0,.91Z"/><path class="cls-8" d="M94.05,214.05a9.39,9.39,0,0,1-1.86-.18,6.77,6.77,0,0,1-5.11-4.54c-.33-1-.74-2.9-1.24-5.52L85,199.45a53.7,53.7,0,0,1-.86-5.52,6.71,6.71,0,0,1,3-6.1A10,10,0,0,1,91,186.34a11.3,11.3,0,0,1,2.13-.21,9.46,9.46,0,0,1,1.86.18,6.73,6.73,0,0,1,5.1,4.54,53.19,53.19,0,0,1,1.24,5.52l.83,4.36c.48,2.56.77,4.42.85,5.52a6.7,6.7,0,0,1-3,6.09,10.14,10.14,0,0,1-3.83,1.5A11.38,11.38,0,0,1,94.05,214.05Zm-1.9-22.44H92a.44.44,0,0,0-.36.26,5.67,5.67,0,0,0,.21,2.12l2.25,11.89a10.9,10.9,0,0,0,.64,2.55.24.24,0,0,0,.25.13.47.47,0,0,0,.16,0c.27-.05.33-.15.35-.32a12.14,12.14,0,0,0-.35-2.73L93,193.8a7,7,0,0,0-.56-2.06A.23.23,0,0,0,92.15,191.61Z"/><path class="cls-9" d="M93.1,186.63a9.32,9.32,0,0,1,1.77.17,6.23,6.23,0,0,1,4.72,4.2,51,51,0,0,1,1.23,5.46l.82,4.36a54.57,54.57,0,0,1,.85,5.47,6.17,6.17,0,0,1-2.77,5.64,9.41,9.41,0,0,1-3.64,1.42,11.16,11.16,0,0,1-2,.2,9.14,9.14,0,0,1-1.76-.17,6.2,6.2,0,0,1-3-1.51,6.09,6.09,0,0,1-1.73-2.69q-.48-1.53-1.23-5.47l-.82-4.35a54.57,54.57,0,0,1-.85-5.47,6.17,6.17,0,0,1,2.77-5.64,9.41,9.41,0,0,1,3.64-1.42,10.34,10.34,0,0,1,2-.2M95,209.07l.25,0a.85.85,0,0,0,.76-.77,13.09,13.09,0,0,0-.35-2.88l-2.22-11.69a8.13,8.13,0,0,0-.62-2.24.76.76,0,0,0-.67-.36,1,1,0,0,0-.24,0,.9.9,0,0,0-.71.55,5.61,5.61,0,0,0,.17,2.42L93.62,206a12.69,12.69,0,0,0,.69,2.71.75.75,0,0,0,.69.38m-1.9-23.44h0a12.33,12.33,0,0,0-2.22.21,10.68,10.68,0,0,0-4,1.58,7.25,7.25,0,0,0-3.2,6.55c.09,1.13.37,2.95.86,5.58l.83,4.35a55.25,55.25,0,0,0,1.26,5.58,7.11,7.11,0,0,0,2,3.12,7.18,7.18,0,0,0,3.47,1.76,9.75,9.75,0,0,0,2,.19,11.52,11.52,0,0,0,2.22-.22,10.51,10.51,0,0,0,4-1.57,7.37,7.37,0,0,0,2.53-2.92,7.24,7.24,0,0,0,.67-3.63c-.09-1.13-.37-3-.86-5.58l-.83-4.35a51.94,51.94,0,0,0-1.26-5.58,7,7,0,0,0-2-3.12,7.18,7.18,0,0,0-3.47-1.76,9.75,9.75,0,0,0-2-.19Zm1.89,22c-.1-.36-.22-.92-.39-1.8l-2.25-11.89a13.92,13.92,0,0,1-.21-1.44c.08.28.19.73.32,1.42l2.21,11.7c.19,1,.28,1.63.32,2Z"/><polygon class="cls-8" points="100.2 185.02 107.74 183.28 112.4 203.47 116.39 202.55 117.78 208.58 106.25 211.24 100.2 185.02"/><path class="cls-9" d="M107.36,183.88,112,204.07l4-.92,1.16,5-10.55,2.44L100.8,185.4l6.56-1.52m.75-1.2-1,.23-6.57,1.51-1,.23.22,1,5.83,25.24.23,1,1-.23,10.56-2.43,1-.23-.22-1L117,202.92l-.22-1-1,.22-3,.7-4.43-19.21-.23-1Z"/><polygon class="cls-8" points="112.01 182.27 123.91 179.4 125.36 185.41 120.99 186.46 121.9 190.27 126 189.28 127.39 195.04 123.3 196.03 124.4 200.59 129.2 199.44 130.65 205.45 118.33 208.42 112.01 182.27"/><path class="cls-9" d="M123.54,180l1.21,5-4.37,1.05,1.16,4.78,4.09-1,1.15,4.79-4.09,1L124,201.2l4.8-1.16,1.22,5-11.35,2.74-6.08-25.18L123.54,180m.73-1.21-1,.24-10.92,2.63-1,.24.24,1,6.07,25.18.24,1,1-.24,11.36-2.74,1-.23-.24-1-1.21-5-.24-1-1,.24-3.83.92-.87-3.59,3.12-.75,1-.24-.24-1-1.15-4.79-.24-1-1,.23-3.12.75-.68-2.83L125,186l1-.23-.23-1-1.22-5-.24-1Z"/><path class="cls-8" d="M126.38,178.59l7.13-1.53a19.33,19.33,0,0,1,3.79-.49l.58,0a5.23,5.23,0,0,1,2.69.85,4.86,4.86,0,0,1,1.56,1.92,18.09,18.09,0,0,1,1,3.56l.48,2.21a9.83,9.83,0,0,1,.25,3.85,4,4,0,0,1-1.67,2.4,9.44,9.44,0,0,1-3.56,1.42l-1.27.28,2.18,10.2L132,204.9Zm9.88,9.18c.3-.07.69-.2.81-.45s.16-.49-.08-1.6l-.45-2.09c-.21-1-.47-1.23-.54-1.28a1,1,0,0,0-.47-.08l-.44,0Z"/><path class="cls-9" d="M137.31,177.07l.53,0a4.79,4.79,0,0,1,2.44.76,4.24,4.24,0,0,1,1.39,1.72,16.69,16.69,0,0,1,1,3.45l.48,2.21a9.38,9.38,0,0,1,.25,3.64,3.43,3.43,0,0,1-1.47,2.1,8.9,8.9,0,0,1-3.37,1.35l-1.77.37L139,202.9l-6.59,1.41L127,179l6.63-1.42a18.43,18.43,0,0,1,3.7-.48m-1.44,11.27a4.56,4.56,0,0,0,.49-.08,1.55,1.55,0,0,0,1.16-.72,3.36,3.36,0,0,0,0-1.93l-.45-2.08a2.43,2.43,0,0,0-.77-1.6,1.34,1.34,0,0,0-.73-.16,4.89,4.89,0,0,0-1,.13l1.38,6.44m1.44-12.27h0a19.2,19.2,0,0,0-3.91.51L126.77,178l-1,.21.21,1,5.42,25.34.21,1,1-.21,6.59-1.41,1-.21-.21-1-2-9.23.79-.17a9.72,9.72,0,0,0,3.75-1.51,4.47,4.47,0,0,0,1.86-2.7,10.13,10.13,0,0,0-.26-4.06l-.47-2.21a18.31,18.31,0,0,0-1.08-3.66,5.22,5.22,0,0,0-1.72-2.12,5.79,5.79,0,0,0-3-.94l-.6,0Zm-.68,11-.93-4.31h0a3.09,3.09,0,0,1,.33,1l.44,2.08a3.89,3.89,0,0,1,.13,1.27Z"/><polygon class="cls-8" points="143.43 175.02 151.06 173.76 154.44 194.21 158.49 193.54 159.5 199.64 147.82 201.57 143.43 175.02"/><path class="cls-9" d="M150.65,174.34,154,194.78l4-.67.85,5.12L148.23,201,144,175.44l6.65-1.1m.82-1.15-1,.16-6.65,1.1-1,.16.17,1,4.23,25.56.16,1,1-.16,10.68-1.77,1-.16-.16-1-.85-5.11-.16-1-1,.16-3,.51-3.22-19.46-.17-1Z"/><path class="cls-8" d="M160,172.47l10.57-.95L177,198l-7.89.71-.78-4.6-1.48.13v4.67l-8,.72Zm6.43,10.37c-.09,2.4-.13,4.33-.13,5.79l1.22-.11C167.18,186.85,166.82,185,166.44,182.84Z"/><path class="cls-9" d="M170.19,172.06l6.16,25.45-6.86.62-.77-4.6-2.4.21v4.68l-6.94.62,1.1-26.11,9.7-.87m-4.37,17.12,2.31-.21q-.9-4.33-2-10.75-.36,7.51-.31,11M171,171l-.86.07-9.69.87-.88.08,0,.88L158.39,199l0,1.14,1.13-.1,6.94-.63.91-.08v-4.67l.56,0,.63,3.69.15.91.92-.08,6.86-.62,1.15-.1-.27-1.13-6.16-25.46L171,171Zm-4.15,17.09c0-.17,0-.35,0-.54,0,.18.07.36.1.53Z"/><path class="cls-8" d="M177.69,188.34l-4.93-17.09,7.26,0,.08.41c.52,2.71.93,5,1.21,6.73.35-2,.79-4.27,1.32-6.75l.09-.39,7.26,0-5,17.11,0,9.81h-7.24Z"/><path class="cls-9" d="M189.31,171.71l-4.88,16.54,0,9.38h-6.24l0-9.37-4.77-16.52,6.19,0q1.47,7.59,1.66,10.21.54-4.16,1.85-10.21l6.19,0m1.34-1h-1.34l-6.19,0h-.81l-.17.79c-.3,1.39-.57,2.72-.81,4-.21-1.18-.46-2.5-.74-4l-.16-.81h-.82l-6.19,0h-1.33l.37,1.27,4.73,16.39,0,9.23v1h8.24v-1l0-9.23,4.84-16.4.38-1.29Z"/><polygon class="cls-8" points="110.03 132.44 112.53 140.42 79.1 145.6 78.03 141.43 76.69 136.15 66.01 94.31 66.01 147.63 43.61 151.09 36.28 152.23 33.66 152.64 33.66 28.23 66.01 23.23 66.01 71.56 75.97 36.59 80.42 21 110.76 16.3 109.25 21.1 92.65 73.92 92.21 75.34 94.36 82.25 107.38 123.94 110.03 132.44"/><path class="cls-8" d="M187,97.1a70.35,70.35,0,0,1-1.21,14.08,28.84,28.84,0,0,1-1.9,6q-3.1,6.76-12,12.42a53.83,53.83,0,0,1-20.75,7.48q-13,2-22.16-1.49a22.57,22.57,0,0,1-9.08-5.9,15.89,15.89,0,0,1-2.94-4.77,28.12,28.12,0,0,1-1.3-4.25,76.19,76.19,0,0,1-1.55-16.9V95.63l30-4.65v15.13c0,1.18,0,2.24.08,3.19.17,2.84.56,4.72,1.19,5.61q1.26,1.82,4.5,1.3a6.38,6.38,0,0,0,4.8-3.28,15.88,15.88,0,0,0,1.57-7.77v-.65q-.09-10.42-3-13.25a30.69,30.69,0,0,0-5.1-3.57q-2.25-1.34-5.33-3c-1.44-.75-3-1.56-4.71-2.41q-12.06-6.12-16-9.12c-.26-.2-.49-.39-.74-.61a22.62,22.62,0,0,1-5.75-8.38c-.08-.18-.16-.37-.23-.55Q113,57.77,113,48.3q0-14.29,3.65-21.47a30.83,30.83,0,0,1,11.79-12.16A53,53,0,0,1,148.14,7.9q12.62-2,21.48.75t11.76,8.44q2.33,4.62,2.77,15.12c.08,1.71.11,3.51.11,5.45v4.92l-30,4.64V38q0-6.46-1.15-8c-.76-1.06-2.05-1.45-3.84-1.17a5.89,5.89,0,0,0-4.41,3.06c-1,1.75-1.5,4.24-1.5,7.47,0,4.14.56,7.19,1.68,9.12a5.91,5.91,0,0,0,1,1.28c1.51,1.55,4.23,3.2,8.16,4.91,2.7,1.18,5.2,2.34,7.53,3.47q11.91,5.81,17.26,10.76a19,19,0,0,1,2.42,2.6,22.28,22.28,0,0,1,3.46,7.17,56.77,56.77,0,0,1,2,13.68C186.92,93.84,187,95.44,187,97.1Z"/><path class="cls-10" d="M130.31,87.72a1,1,0,0,1-.66,1.6l-2.05.17c-1.66.14-3.36.28-5,.43a12,12,0,0,1-10.19-4.12l-5.77-6.75a.3.3,0,0,1-.08-.08l-.08-.1a3.87,3.87,0,0,1-.46-.75,7.06,7.06,0,0,0,10.11-6.94l.17.19a0,0,0,0,1,0,0Z"/><path class="cls-8" d="M116,70.92a3.72,3.72,0,0,1,.33.45c1.21,2,.39,5-2,7.1s-5.94,2.44-7.64.59l-.08-.09-.08-.09a4,4,0,0,1-.46-.77c-.89-2,0-4.77,2.22-6.7C110.86,69.19,114.32,69,116,70.92Z"/><path class="cls-10" d="M197.89,59,226.7,92.66a7.32,7.32,0,0,1-2.3,11.4,3.9,3.9,0,0,1-5-1L188.24,66.7a3.71,3.71,0,0,1-.47-.76A7.05,7.05,0,0,0,197.89,59Z"/><path class="cls-11" d="M197.72,58.74a4.29,4.29,0,0,1,.33.45c1.22,2,.4,5-2,7.11-2.56,2.18-5.95,2.44-7.64.58a.3.3,0,0,1-.08-.08l-.08-.1a3.71,3.71,0,0,1-.47-.76c-.89-2,0-4.77,2.23-6.7C192.6,57,196.06,56.79,197.72,58.74Z"/><path class="cls-10" d="M29,104.9l-.91,8.91a1.85,1.85,0,0,1-3.24,1L8.4,95.58l-.08-.09-.08-.1a3.59,3.59,0,0,1-.46-.75A7.07,7.07,0,0,0,17.9,87.7l.16.19,0,0L27,98.29A8.73,8.73,0,0,1,29,104.9Z"/><path class="cls-8" d="M17.73,87.44a3.72,3.72,0,0,1,.33.45c1.22,2,.39,5-2,7.1-2.56,2.19-6,2.44-7.65.59l-.08-.09-.07-.09a3.38,3.38,0,0,1-.47-.77c-.89-2,0-4.77,2.23-6.69C12.6,85.71,16.06,85.49,17.73,87.44Z"/></g></g></svg>